<svg width="20" height="20" viewBox="0 0 20 20" fill="none" xmlns="http://www.w3.org/2000/svg">
<g clip-path="url(#clip0_818_281)">
<path d="M10 19C14.9706 19 19 14.9706 19 10C19 5.02944 14.9706 1 10 1C5.02944 1 1 5.02944 1 10C1 14.9706 5.02944 19 10 19Z" fill="white"/>
<path fill-rule="evenodd" clip-rule="evenodd" d="M10 0C15.52 0 20 4.48 20 10C20 15.52 15.52 20 10 20C4.48 20 0 15.52 0 10C0 4.48 4.48 0 10 0ZM10 12.75C9.31 12.75 8.75 13.31 8.75 14C8.75 14.69 9.31 15.25 10 15.25C10.69 15.25 11.25 14.69 11.25 14C11.25 13.31 10.69 12.75 10 12.75ZM10 5C9.45 5 9 5.45 9 6V11C9 11.55 9.45 12 10 12C10.55 12 11 11.55 11 11V6C11 5.45 10.55 5 10 5Z" fill="#FF5863"/>
</g>
<defs>
<clipPath id="clip0_818_281">
<rect width="20" height="20" fill="white"/>
</clipPath>
</defs>
</svg>
