<svg width="20" height="20" viewBox="0 0 20 20" fill="none" xmlns="http://www.w3.org/2000/svg">
<g clip-path="url(#clip0_806_272)">
<path d="M7.409 6.37947L9.619 1.95947C9.869 1.44947 10.479 1.23947 10.989 1.49947C11.189 1.59947 11.349 1.76947 11.449 1.96947L13.529 6.22947C13.699 6.56947 14.029 6.80947 14.409 6.85947L18.769 7.37947C19.359 7.45947 19.789 7.99947 19.719 8.59947C19.689 8.83947 19.579 9.06947 19.399 9.24947L15.949 12.6695C15.809 12.7995 15.749 12.9995 15.769 13.1995L16.339 17.8095C16.429 18.4695 15.959 19.0795 15.309 19.1595C15.059 19.1895 14.809 19.1395 14.589 19.0195L10.949 17.0195C10.689 16.8795 10.369 16.8695 10.099 17.0095L6.329 18.9595C5.799 19.2295 5.149 19.0195 4.879 18.4795C4.769 18.2795 4.739 18.0495 4.769 17.8295L5.069 15.7095C5.219 14.6695 5.859 13.7795 6.779 13.2995L10.969 11.1495C11.079 11.0895 11.119 10.9495 11.069 10.8395C11.019 10.7495 10.929 10.6995 10.829 10.7195L5.709 11.4595C4.929 11.5695 4.129 11.3495 3.519 10.8395L1.809 9.43947C1.319 9.03947 1.249 8.31947 1.639 7.81947C1.829 7.59947 2.089 7.44947 2.379 7.40947L6.759 6.83947C7.039 6.80947 7.279 6.62947 7.409 6.37947V6.37947Z" fill="url(#paint0_linear_806_272)"/>
<g filter="url(#filter0_i_806_272)">
<path d="M7.409 6.37947L9.619 1.95947C9.869 1.44947 10.479 1.23947 10.989 1.49947C11.189 1.59947 11.349 1.76947 11.449 1.96947L13.529 6.22947C13.699 6.56947 14.029 6.80947 14.409 6.85947L18.769 7.37947C19.359 7.45947 19.789 7.99947 19.719 8.59947C19.689 8.83947 19.579 9.06947 19.399 9.24947L15.949 12.6695C15.809 12.7995 15.749 12.9995 15.769 13.1995L16.339 17.8095C16.429 18.4695 15.959 19.0795 15.309 19.1595C15.059 19.1895 14.809 19.1395 14.589 19.0195L10.949 17.0195C10.689 16.8795 10.369 16.8695 10.099 17.0095L6.329 18.9595C5.799 19.2295 5.149 19.0195 4.879 18.4795C4.769 18.2795 4.739 18.0495 4.769 17.8295L5.069 15.7095C5.219 14.6695 5.859 13.7795 6.779 13.2995L10.969 11.1495C11.079 11.0895 11.119 10.9495 11.069 10.8395C11.019 10.7495 10.929 10.6995 10.829 10.7195L5.709 11.4595C4.929 11.5695 4.129 11.3495 3.519 10.8395L1.809 9.43947C1.319 9.03947 1.249 8.31947 1.639 7.81947C1.829 7.59947 2.089 7.44947 2.379 7.40947L6.759 6.83947C7.039 6.80947 7.279 6.62947 7.409 6.37947Z" fill="url(#paint1_radial_806_272)"/>
</g>
<path d="M7.409 6.37947L9.619 1.95947C9.869 1.44947 10.479 1.23947 10.989 1.49947C11.189 1.59947 11.349 1.76947 11.449 1.96947L13.529 6.22947C13.699 6.56947 14.029 6.80947 14.409 6.85947L18.769 7.37947C19.359 7.45947 19.789 7.99947 19.719 8.59947C19.689 8.83947 19.579 9.06947 19.399 9.24947L15.949 12.6695C15.809 12.7995 15.749 12.9995 15.769 13.1995L16.339 17.8095C16.429 18.4695 15.959 19.0795 15.309 19.1595C15.059 19.1895 14.809 19.1395 14.589 19.0195L10.949 17.0195C10.689 16.8795 10.369 16.8695 10.099 17.0095L6.329 18.9595C5.799 19.2295 5.149 19.0195 4.879 18.4795C4.769 18.2795 4.739 18.0495 4.769 17.8295L5.069 15.7095C5.219 14.6695 5.859 13.7795 6.779 13.2995L10.969 11.1495C11.079 11.0895 11.119 10.9495 11.069 10.8395C11.019 10.7495 10.929 10.6995 10.829 10.7195L5.709 11.4595C4.929 11.5695 4.129 11.3495 3.519 10.8395L1.809 9.43947C1.319 9.03947 1.249 8.31947 1.639 7.81947C1.829 7.59947 2.089 7.44947 2.379 7.40947L6.759 6.83947C7.039 6.80947 7.279 6.62947 7.409 6.37947V6.37947Z" stroke="url(#paint2_linear_806_272)" stroke-width="0.89"/>
</g>
<defs>
<filter id="filter0_i_806_272" x="1.38788" y="1.3877" width="19.3386" height="18.7803" filterUnits="userSpaceOnUse" color-interpolation-filters="sRGB">
<feFlood flood-opacity="0" result="BackgroundImageFix"/>
<feBlend mode="normal" in="SourceGraphic" in2="BackgroundImageFix" result="shape"/>
<feColorMatrix in="SourceAlpha" type="matrix" values="0 0 0 0 0 0 0 0 0 0 0 0 0 0 0 0 0 0 127 0" result="hardAlpha"/>
<feOffset dx="1" dy="1"/>
<feGaussianBlur stdDeviation="1.05"/>
<feComposite in2="hardAlpha" operator="arithmetic" k2="-1" k3="1"/>
<feColorMatrix type="matrix" values="0 0 0 0 1 0 0 0 0 1 0 0 0 0 1 0 0 0 0.7 0"/>
<feBlend mode="normal" in2="shape" result="effect1_innerShadow_806_272"/>
</filter>
<linearGradient id="paint0_linear_806_272" x1="459.853" y1="16.0564" x2="1329.74" y2="1939.78" gradientUnits="userSpaceOnUse">
<stop stop-color="#FFD951"/>
<stop offset="1" stop-color="#FFB222"/>
</linearGradient>
<radialGradient id="paint1_radial_806_272" cx="0" cy="0" r="1" gradientUnits="userSpaceOnUse" gradientTransform="translate(10.5572 10.2778) rotate(90) scale(8.89014 9.1693)">
<stop stop-color="#FFC400"/>
<stop offset="1" stop-color="#E08A00"/>
</radialGradient>
<linearGradient id="paint2_linear_806_272" x1="918.318" y1="1.3877" x2="918.318" y2="1775.86" gradientUnits="userSpaceOnUse">
<stop stop-color="#E5920D"/>
<stop offset="0.9996" stop-color="#EB7915"/>
</linearGradient>
<clipPath id="clip0_806_272">
<rect width="20" height="20" fill="white"/>
</clipPath>
</defs>
</svg>
